<?xml version="1.0" encoding="UTF-8" standalone="no"?>
<!-- Created with Inkscape (http://www.inkscape.org/) -->

<svg
   width="27.160297mm"
   height="6.8149142mm"
   viewBox="0 0 27.160297 6.8149142"
   version="1.1"
   id="svg5"
   xmlns:xlink="http://www.w3.org/1999/xlink"
   xmlns="http://www.w3.org/2000/svg"
   xmlns:svg="http://www.w3.org/2000/svg">
  <defs
     id="defs2">
    <linearGradient
       xlink:href="#linearGradient8869"
       id="linearGradient14695"
       gradientUnits="userSpaceOnUse"
       x1="34.814053"
       y1="88.505592"
       x2="97.954262"
       y2="88.505592" />
    <linearGradient
       id="linearGradient8869">
      <stop
         style="stop-color:#ffffff;stop-opacity:1;"
         offset="0"
         id="stop8865" />
      <stop
         style="stop-color:#999999;stop-opacity:1;"
         offset="1"
         id="stop8867" />
    </linearGradient>
    <linearGradient
       xlink:href="#linearGradient8869"
       id="linearGradient1012"
       gradientUnits="userSpaceOnUse"
       x1="34.814053"
       y1="88.505592"
       x2="97.954262"
       y2="88.505592" />
    <linearGradient
       xlink:href="#linearGradient8869"
       id="linearGradient1014"
       gradientUnits="userSpaceOnUse"
       x1="34.814053"
       y1="88.505592"
       x2="97.954262"
       y2="88.505592" />
    <linearGradient
       xlink:href="#linearGradient8869"
       id="linearGradient1016"
       gradientUnits="userSpaceOnUse"
       x1="34.814053"
       y1="88.505592"
       x2="97.954262"
       y2="88.505592" />
    <linearGradient
       xlink:href="#linearGradient8869"
       id="linearGradient1018"
       gradientUnits="userSpaceOnUse"
       x1="34.814053"
       y1="88.505592"
       x2="97.954262"
       y2="88.505592" />
    <linearGradient
       xlink:href="#linearGradient8869"
       id="linearGradient1020"
       gradientUnits="userSpaceOnUse"
       x1="34.814053"
       y1="88.505592"
       x2="97.954262"
       y2="88.505592" />
    <linearGradient
       xlink:href="#linearGradient8869"
       id="linearGradient1022"
       gradientUnits="userSpaceOnUse"
       x1="34.814053"
       y1="88.505592"
       x2="97.954262"
       y2="88.505592" />
  </defs>
  <g
     id="layer1"
     transform="translate(-104.28837,-178.23187)">
    <g
       id="g3975-0-3-0"
       style="fill:url(#linearGradient14695);fill-opacity:1"
       transform="matrix(0.4301585,0,0,0.4301585,89.312806,143.56789)">
      <path
         d="m 45.194751,84.497332 q -0.271746,0 -0.570667,0.190222 -0.29892,0.190222 -0.461968,0.461968 l -3.002793,5.217524 q -0.163048,0.271746 -0.461969,0.461968 -0.29892,0.190222 -0.570666,0.190222 -0.380445,0 -0.380445,-0.326095 0,-0.14946 0.108699,-0.326095 l 3.002793,-5.217524 q 0.108699,-0.176634 0.108699,-0.326095 0,-0.326095 -0.380445,-0.326095 h -3.260952 q -0.271746,0 -0.570667,0.190222 -0.29892,0.190222 -0.461968,0.461968 l -3.383238,5.869714 q -0.09511,0.176635 -0.09511,0.326095 0,0.326096 0.366857,0.326096 h 9.130666 q 0.271746,0 0.570667,-0.190223 0.312508,-0.190222 0.461968,-0.461968 l 3.383238,-5.869714 q 0.108698,-0.176634 0.108698,-0.326095 0,-0.326095 -0.380444,-0.326095 z"
         style="font-size:13.5873px;font-family:'Planet Kosmos';-inkscape-font-specification:'Planet Kosmos';fill:url(#linearGradient1012);fill-opacity:1;stroke-width:1.13227"
         id="path396-7-4-4" />
      <path
         d="m 54.094437,84.497332 c 0.108699,-0.181164 0.262688,-0.335153 0.461968,-0.461968 0.199281,-0.126815 0.389503,-0.190222 0.570667,-0.190222 v 0 c -0.03862,0.01425 28.968024,0.825034 42.822853,-0.421205 0,-0.153989 -42.116314,-0.230984 -42.442409,-0.230984 v 0 c -0.253629,0 -0.380444,-0.108698 -0.380444,-0.326095 0,-0.09964 0.0317,-0.208338 0.09511,-0.326095 l 0.760889,-1.304381 c 0.06341,-0.117757 0.09511,-0.226455 0.09511,-0.326095 0,-0.217397 -0.122286,-0.326095 -0.366857,-0.326095 h -3.260952 c -0.492438,0.02343 -0.752073,0.004 -0.935832,0.394268 -0.334211,0.599351 -0.704559,1.198605 -1.010558,1.749951 -0.200778,0.30827 -0.435834,0.365382 -0.651766,0.374464 l -11.486247,0.180412 10.945864,0.476851 c 0.3124,0.0087 0.575575,0.0726 0.383747,0.460337 l -4.582347,7.940102 c -0.135873,0.226455 -0.20381,0.471027 -0.20381,0.733715 0,0.135873 0.02717,0.2491 0.08152,0.339682 l 1.793524,3.057143 c 0.05435,0.09058 0.122283,0.135873 0.203809,0.135873 0.153989,0 0.298921,-0.117757 0.434794,-0.35327 z"
         style="font-size:13.5873px;font-family:'Planet Kosmos';-inkscape-font-specification:'Planet Kosmos';fill:url(#linearGradient1014);fill-opacity:1;stroke-width:1.13227"
         id="path398-7-4-7" />
      <path
         d="m 57.450494,88.410474 h 4.565333 q 0.271746,0 0.570666,-0.190222 0.298921,-0.190222 0.461968,-0.461968 l 1.508191,-2.608762 q 0.09511,-0.176634 0.09511,-0.326095 0,-0.326095 -0.380445,-0.326095 h -9.130665 q -0.271746,0 -0.570667,0.190222 -0.298921,0.190222 -0.448381,0.461968 l -3.396825,5.869714 q -0.09511,0.176635 -0.09511,0.326095 0,0.326096 0.366857,0.326096 h 9.130666 q 0.271746,0 0.570666,-0.190223 0.312508,-0.190222 0.461969,-0.461968 l 0.760888,-1.304381 q 0.09511,-0.176635 0.09511,-0.326095 0,-0.326095 -0.380445,-0.326095 h -3.260952 q -0.271746,0 -0.570667,0.190222 -0.29892,0.190222 -0.44838,0.461968 l -0.380445,0.652191 q -0.163047,0.271746 -0.461968,0.461968 -0.298921,0.190222 -0.570667,0.190222 -0.380444,0 -0.380444,-0.326095 0,-0.14946 0.108698,-0.326095 l 0.747302,-1.304381 q 0.163047,-0.271746 0.461968,-0.461968 0.298921,-0.190223 0.570667,-0.190223 z m 0.856,-2.608761 q 0.14946,-0.271746 0.44838,-0.461968 0.312508,-0.190223 0.584254,-0.190223 0.366857,0 0.366857,0.326096 0,0.14946 -0.09511,0.326095 l -0.760888,1.304381 q -0.149461,0.271746 -0.461969,0.461968 -0.29892,0.190222 -0.557079,0.190222 -0.380444,0 -0.380444,-0.326095 0,-0.14946 0.09511,-0.326095 z"
         style="font-size:13.5873px;font-family:'Planet Kosmos';-inkscape-font-specification:'Planet Kosmos';fill:url(#linearGradient1016);fill-opacity:1;stroke-width:1.13227"
         id="path400-2-5-7" />
      <path
         d="m 66.268655,84.497332 q -0.258159,0 -0.570666,0.190222 -0.298921,0.190222 -0.448381,0.461968 l -3.396825,5.869714 q -0.09511,0.176635 -0.09511,0.326095 0,0.326096 0.380445,0.326096 h 3.260952 q 0.258159,0 0.557079,-0.190223 0.312508,-0.190222 0.461968,-0.461968 l 3.016381,-5.217523 q 0.14946,-0.271746 0.448381,-0.461968 0.312508,-0.190223 0.584254,-0.190223 0.366857,0 0.366857,0.326096 0,0.14946 -0.09511,0.326095 l -3.016381,5.217523 q -0.09511,0.176635 -0.09511,0.326095 0,0.326096 0.380445,0.326096 h 3.260948 q 0.258158,0 0.557079,-0.190223 0.312508,-0.190222 0.461968,-0.461968 l 3.396825,-5.869714 q 0.09511,-0.176634 0.09511,-0.326095 0,-0.326095 -0.380444,-0.326095 z"
         style="font-size:13.5873px;font-family:'Planet Kosmos';-inkscape-font-specification:'Planet Kosmos';fill:url(#linearGradient1018);fill-opacity:1;stroke-width:1.13227"
         id="path402-6-8-2" />
      <path
         d="m 77.559711,84.497332 q -0.258159,0 -0.570667,0.190222 -0.29892,0.190222 -0.448381,0.461968 l -3.396825,5.869714 q -0.09511,0.176635 -0.09511,0.326095 0,0.326096 0.380444,0.326096 h 9.130666 q 0.258159,0 0.55708,-0.190223 0.312507,-0.190222 0.461968,-0.461968 l 3.396825,-5.869714 q 0.09511,-0.176634 0.09511,-0.326095 0,-0.326095 -0.380444,-0.326095 z m 1.834285,5.869714 q -0.14946,0.271746 -0.461968,0.461968 -0.298921,0.190222 -0.570667,0.190222 v 0 q -0.366857,0 -0.366857,-0.326095 0,-0.14946 0.09511,-0.326095 l 2.635937,-4.565333 q 0.14946,-0.271746 0.448381,-0.461968 0.312508,-0.190223 0.584254,-0.190223 v 0 q 0.366857,0 0.366857,0.326096 0,0.14946 -0.09511,0.326095 z"
         style="font-size:13.5873px;font-family:'Planet Kosmos';-inkscape-font-specification:'Planet Kosmos';fill:url(#linearGradient1020);fill-opacity:1;stroke-width:1.13227"
         id="path404-2-6-0" />
      <path
         d="m 88.443149,84.497332 q -0.271746,0 -0.570666,0.190222 -0.298921,0.190222 -0.461969,0.461968 l -3.383237,5.869714 q -0.09511,0.176635 -0.09511,0.326095 0,0.326096 0.366857,0.326096 h 3.260952 q 0.271746,0 0.570666,-0.190223 0.312508,-0.190222 0.461969,-0.461968 l 3.01638,-5.217523 q 0.149461,-0.271746 0.448381,-0.461968 0.312508,-0.190223 0.570667,-0.190223 v 0 q 0.380444,0 0.380444,0.326096 0,0.14946 -0.09511,0.326095 l -0.380444,0.65219 q -0.09511,0.176635 -0.09511,0.326095 0,0.326096 0.366857,0.326096 h 3.260952 q 0.271746,0 0.570666,-0.190223 0.312508,-0.190222 0.461969,-0.461968 l 0.747301,-1.304381 q 0.108698,-0.176634 0.108698,-0.326095 0,-0.326095 -0.380444,-0.326095 z"
         style="font-size:13.5873px;font-family:'Planet Kosmos';-inkscape-font-specification:'Planet Kosmos';fill:url(#linearGradient1022);fill-opacity:1;stroke-width:1.13227"
         id="path406-6-4-2" />
    </g>
  </g>
</svg>
